<?xml version="1.0" encoding="utf-8"?>
<!-- Generator: Adobe Illustrator 12.0.0, SVG Export Plug-In . SVG Version: 6.00 Build 51448)  -->
<!DOCTYPE svg PUBLIC "-//W3C//DTD SVG 1.1//EN" "http://www.w3.org/Graphics/SVG/1.1/DTD/svg11.dtd" [
	<!ENTITY ns_svg "http://www.w3.org/2000/svg">
	<!ENTITY ns_xlink "http://www.w3.org/1999/xlink">
]>
<svg  version="1.1" id="Layer_1" xmlns="&ns_svg;" xmlns:xlink="&ns_xlink;" width="315.146" height="143.851"
	 viewBox="0 0 315.146 143.851" overflow="visible" enable-background="new 0 0 315.146 143.851" xml:space="preserve">
<g>
	<g>
		<path fill="#50667E" d="M103.226,108.24c-1.394,5.697-2.791,11.394-4.182,17.095h39.021c-1.393-5.702-2.792-11.398-4.179-17.095
			H103.226z"/>
		<path fill="#2A445E" d="M140.477,125.031H96.632c-1.105,0-2.014,1.056-2.014,2.367v0.888h47.874v-0.888
			C142.492,126.087,141.586,125.031,140.477,125.031"/>
		<path fill="#F1F2F2" d="M52.625,101.586v9.423c0,1.814,1.469,3.277,3.285,3.277h125.289c1.81,0,3.28-1.463,3.28-3.277v-9.423
			H52.625z"/>
		<path fill="#50667E" d="M184.479,101.586V21.822c0-1.809-1.471-3.28-3.28-3.28H55.91c-1.816,0-3.285,1.471-3.285,3.28v79.764
			H184.479z"/>
		<rect x="58.021" y="23.672" fill="#A8D9E7" width="121.059" height="72.471"/>
		<path fill="#94C915" d="M71.885,50.403c2.432,0,4.478,0.437,6.308,1.187c1.606,0.661,3.056,1.569,4.427,2.691
			c2.401,1.958,4.549,4.571,6.729,7.448c1.343,1.768,2.699,3.631,4.157,5.488l-0.004-6.42c-2.429-3.249-4.882-6.477-7.912-9.091
			c-1.773-1.525-3.755-2.832-6.028-3.75c-2.271-0.919-4.82-1.435-7.674-1.436L71.885,50.403z"/>
		<path fill="#94C915" d="M135.795,63.185c-2.887,3.848-5.537,7.524-8.587,10.138c-1.522,1.313-3.138,2.365-4.949,3.094
			c-1.815,0.732-3.833,1.157-6.231,1.153c-2.47,0-4.587-0.437-6.508-1.196c-1.678-0.665-3.212-1.586-4.666-2.715
			c-2.544-1.967-4.839-4.586-7.133-7.453c-1.383-1.721-2.766-3.536-4.216-5.335l-0.002,6.259c2.584,3.289,5.224,6.55,8.436,9.171
			c1.863,1.52,3.927,2.816,6.263,3.727c2.335,0.909,4.938,1.427,7.826,1.425c2.903,0,5.496-0.533,7.794-1.481
			c2.01-0.826,3.792-1.956,5.404-3.273c2.822-2.308,5.132-5.17,7.364-8.104c0.355-0.473,0.709-0.948,1.066-1.42l-0.001-6.416
			C137.016,61.567,136.4,62.379,135.795,63.185"/>
		<path fill="#94C915" d="M148.099,54.648c1.524-1.31,3.138-2.362,4.95-3.094c1.812-0.729,3.831-1.149,6.223-1.153V46.52
			c-2.899,0.001-5.485,0.536-7.781,1.48c-2.014,0.825-3.799,1.956-5.411,3.274c-2.819,2.31-5.127,5.17-7.36,8.107
			c-0.356,0.473-0.713,0.943-1.065,1.417l0.002,6.419c0.636-0.812,1.254-1.624,1.858-2.43
			C142.4,60.94,145.046,57.262,148.099,54.648"/>
		<path fill="#F6AA00" d="M126.77,54.282c2.401,1.957,4.551,4.572,6.728,7.445c1.344,1.769,2.701,3.635,4.158,5.49l-0.002-6.419
			c-2.432-3.249-4.885-6.48-7.915-9.093c-1.774-1.526-3.755-2.832-6.026-3.749c-2.272-0.92-4.827-1.439-7.684-1.438
			c-2.933,0-5.572,0.535-7.938,1.475c-2.068,0.817-3.926,1.941-5.613,3.252c-2.958,2.296-5.427,5.152-7.784,8.096
			c-0.399,0.498-0.795,0.999-1.189,1.502v6.255c0.613-0.76,1.219-1.523,1.812-2.28c3.004-3.833,5.841-7.507,9.075-10.138
			c1.618-1.317,3.325-2.378,5.222-3.117c1.895-0.738,3.985-1.163,6.417-1.164c2.434,0,4.482,0.437,6.316,1.19
			C123.949,52.249,125.399,53.161,126.77,54.282"/>
		<path fill="#F6AA00" d="M83.058,73.325c-1.524,1.31-3.139,2.359-4.949,3.092c-1.813,0.729-3.832,1.151-6.224,1.155v3.881
			c2.903,0.001,5.487-0.537,7.783-1.482c2.013-0.824,3.798-1.956,5.409-3.274c2.818-2.309,5.127-5.169,7.36-8.104
			c0.355-0.475,0.711-0.948,1.063-1.419v-6.417c-0.632,0.813-1.253,1.623-1.858,2.428C88.756,67.032,86.109,70.71,83.058,73.325"/>
		<path fill="#F6AA00" d="M159.271,77.569c-2.431,0-4.475-0.434-6.309-1.188c-1.605-0.66-3.055-1.568-4.425-2.691
			c-2.4-1.956-4.549-4.573-6.726-7.446c-1.345-1.769-2.703-3.636-4.156-5.488l-0.001,6.418c2.43,3.25,4.885,6.48,7.911,9.091
			c1.773,1.526,3.759,2.833,6.029,3.749c2.271,0.919,4.822,1.439,7.676,1.437V77.569z"/>
		<path fill="#F6AA00" d="M85.077,76.697c2.818-2.31,5.127-5.169,7.36-8.104c0.355-0.475,0.711-0.948,1.063-1.42l0.003-0.073
			c0.613-0.761,1.219-1.524,1.812-2.281c3.004-3.832,5.841-7.507,9.075-10.138c1.618-1.316,3.325-2.377,5.221-3.117
			c1.896-0.737,3.986-1.162,6.418-1.163c2.434,0.001,4.482,0.437,6.316,1.191c1.604,0.657,3.055,1.569,4.425,2.69
			c2.401,1.956,4.551,4.572,6.727,7.445c1.345,1.769,2.702,3.635,4.159,5.49v-0.042c2.43,3.249,4.885,6.479,7.911,9.091
			c1.773,1.525,3.759,2.833,6.029,3.749c2.271,0.919,4.822,1.439,7.676,1.437V77.57c-2.431,0-4.475-0.435-6.309-1.188
			c-1.607-0.659-3.055-1.569-4.425-2.691c-2.4-1.956-4.549-4.573-6.727-7.445c-1.346-1.769-2.702-3.637-4.155-5.489l-0.003,0.042
			c-2.432-3.249-4.885-6.48-7.915-9.094c-1.774-1.526-3.755-2.831-6.026-3.749c-2.272-0.92-4.827-1.439-7.684-1.437
			c-2.933,0-5.572,0.534-7.938,1.473c-2.068,0.817-3.926,1.942-5.613,3.252c-2.958,2.296-5.427,5.153-7.785,8.096
			c-0.398,0.498-0.794,0.999-1.188,1.502L93.5,60.756c-0.631,0.813-1.252,1.622-1.857,2.427c-2.887,3.848-5.533,7.526-8.585,10.142
			c-1.524,1.309-3.139,2.359-4.949,3.092c-1.813,0.729-3.832,1.151-6.224,1.155v3.88c2.903,0.001,5.487-0.537,7.782-1.482
			C81.681,79.147,83.466,78.016,85.077,76.697"/>
		<path fill="#F6AA00" d="M117.241,63.995l0.001-17.438c-0.409-0.022-0.824-0.039-1.247-0.037c-0.714,0.001-1.404,0.034-2.078,0.093
			l-0.002,17.384L117.241,63.995z"/>
		<path fill="#F6AA00" d="M123.778,63.997V48.006c-1.044-0.43-2.15-0.779-3.327-1.029l0.002,17.021L123.778,63.997z"/>
		<path fill="#F6AA00" d="M130.317,63.995l0.002-11.727c-1.045-0.95-2.146-1.82-3.327-2.579v14.306L130.317,63.995z"/>
		<path fill="#F6AA00" d="M104.164,63.997V50.021c-1.173,0.768-2.275,1.632-3.327,2.568l0.001,11.409L104.164,63.997z"/>
		<path fill="#F6AA00" d="M110.701,63.995l0.002-16.848c-1.169,0.29-2.275,0.671-3.326,1.132v15.718L110.701,63.995z"/>
		<path fill="#94C915" d="M79.688,63.987v-15.98c-1.045-0.432-2.15-0.779-3.327-1.028v17.007L79.688,63.987z"/>
		<path fill="#94C915" d="M86.226,63.986V52.269c-1.042-0.949-2.143-1.819-3.327-2.579v14.296L86.226,63.986z"/>
		<path fill="#94C915" d="M147.859,63.985l-0.001-13.964c-1.172,0.767-2.276,1.63-3.323,2.568v11.396L147.859,63.985z"/>
		<path fill="#94C915" d="M154.396,63.985V47.146c-1.168,0.289-2.272,0.672-3.325,1.134v15.707L154.396,63.985z"/>
		<path fill="#F6AA00" d="M79.689,79.967l-0.002-15.98l-3.327-0.002v17.01C77.537,80.746,78.643,80.397,79.689,79.967"/>
		<path fill="#94C915" d="M110.7,80.825l0.003-16.84l-3.326,0.001v15.707C108.43,80.156,109.533,80.535,110.7,80.825"/>
		<path fill="#94C915" d="M100.841,75.385c1.048,0.933,2.15,1.802,3.323,2.566V63.985l-3.326,0.001L100.841,75.385z"/>
		<path fill="#F6AA00" d="M147.859,77.951V63.985l-3.324,0.001l-0.004,11.397C145.582,76.321,146.685,77.185,147.859,77.951"/>
		<path fill="#94C915" d="M130.317,75.705v-11.72l-3.327,0.002l0.002,14.296C128.174,77.521,129.279,76.655,130.317,75.705"/>
		<path fill="#F6AA00" d="M86.226,75.706V63.987l-3.327-0.002v14.297C84.083,77.525,85.184,76.654,86.226,75.706"/>
		<path fill="#94C915" d="M123.778,63.986h-3.325l-0.002,17.007c1.177-0.248,2.286-0.595,3.327-1.028V63.986z"/>
		<path fill="#F6AA00" d="M151.071,63.987l-0.001,15.707c1.049,0.459,2.157,0.841,3.325,1.13l0.001-16.839L151.071,63.987z"/>
		<path fill="#94C915" d="M115.995,81.453c0.421-0.001,0.837-0.015,1.247-0.036l-0.004-17.432l-3.323,0.001v17.375
			C114.591,81.418,115.278,81.453,115.995,81.453"/>
		<path fill="#F6AA00" d="M95.969,63.986c2.764-3.53,5.421-6.869,8.422-9.305c1.617-1.317,3.324-2.378,5.221-3.117
			c1.895-0.738,3.985-1.163,6.417-1.164c2.434,0,4.482,0.437,6.316,1.19c1.604,0.658,3.055,1.57,4.425,2.69
			c2.401,1.957,4.551,4.572,6.728,7.445c0.562,0.738,1.127,1.497,1.696,2.258h4.918c-0.796-1.065-1.61-2.15-2.455-3.229
			l-0.003,0.042c-2.432-3.25-4.885-6.48-7.915-9.094c-1.774-1.526-3.755-2.831-6.026-3.749c-2.272-0.92-4.827-1.439-7.684-1.438
			c-2.933,0-5.572,0.535-7.938,1.475c-2.068,0.816-3.926,1.941-5.613,3.252c-2.958,2.296-5.427,5.152-7.784,8.096
			c-0.399,0.498-0.795,0.999-1.189,1.502l-0.002-0.087c-0.632,0.812-1.253,1.622-1.858,2.426c-0.203,0.272-0.401,0.538-0.597,0.803
			H95.969z"/>
	</g>
	<g>
		<path fill="#FEE1B9" d="M202.984,96.64c-23.12,0-41.87,20.106-41.87,45.856h83.743C244.857,116.746,226.106,96.64,202.984,96.64"
			/>
		<path fill="#2FB262" d="M214.918,98.507c-1.283,5.003-5.813,8.708-11.219,8.708c-5.553,0-10.188-3.904-11.323-9.111
			c-17.984,5.055-31.262,22.725-31.262,44.392h83.743C244.857,121.366,232.224,104.043,214.918,98.507"/>
		<path fill="#F4F4F4" d="M215.016,98.412l-11.307,45.43h41.147v-9.477C244.856,116.614,232.041,101.809,215.016,98.412"/>
		<path fill="#FFFFFF" d="M161.21,134.365v9.477h42.499l-13.045-45.344C173.834,102.038,161.21,116.749,161.21,134.365"/>
		<polygon fill="#FEE1B9" points="211.095,99.403 202.784,101.95 194.875,99.403 194.875,83.203 211.095,83.203 		"/>
		<path fill="#EDEDED" d="M203.69,143.842l17.781-27.819l-5.379-2.57l8.56-2.445l3.617-7.144c0,0-5.827-4.491-13.271-5.337
			C212.993,106.462,203.69,143.842,203.69,143.842"/>
		<path fill="#F2F2F2" d="M203.69,143.842l-17.781-27.819l5.381-2.57l-8.561-2.445l-3.829-7.989c0,0,5.777-3.568,13.274-5.337
			C194.178,105.614,203.69,143.842,203.69,143.842"/>
		<path fill="#10303F" d="M237.925,49.31c0-20.397-15.643-36.933-34.94-36.933c-19.297,0-34.938,16.535-34.938,36.933
			c0,20.4,15.642,36.933,34.938,36.933C222.282,86.243,237.925,69.709,237.925,49.31"/>
		<path fill="#FEE1B9" d="M228.988,55.444c0-21.141-11.645-33.164-26.004-33.164s-26.001,12.023-26.001,33.164
			c0,21.142,11.642,38.283,26.001,38.283S228.988,76.586,228.988,55.444"/>
		<path fill="#FEE1B9" d="M225.029,70.103c-4.715-0.525-7.895-5.922-7.096-12.052c0.786-6.133,5.249-10.685,9.967-10.164
			c4.713,0.523,7.888,5.919,7.092,12.051C234.202,66.07,229.742,70.62,225.029,70.103"/>
		<path fill="#FEE1B9" d="M171.159,59.938c-0.795-6.132,2.383-11.528,7.092-12.051c4.718-0.521,9.183,4.031,9.973,10.164
			c0.798,6.129-2.389,11.527-7.1,12.052C176.411,70.62,171.95,66.07,171.159,59.938"/>
		<path fill="#10303F" d="M220.572,17.587C220.572,7.876,212.699,0,202.984,0c-9.712,0-17.585,7.876-17.585,17.587
			s7.873,17.587,17.585,17.587C212.699,35.175,220.572,27.298,220.572,17.587"/>
		<path fill="#10303F" d="M231.119,52.466c0-0.062,0.004-0.123,0.004-0.185c0-16.4-11.104-33.705-26.643-33.705
			c-15.54,0-29.632,17.305-29.632,33.705c0,0.063,0.005,0.124,0.005,0.185H231.119z"/>
		<path fill="#FAFAF8" d="M182.702,36.513c5.856-5.037,13.476-8.084,21.806-8.084c7.691,0,14.771,2.601,20.421,6.962l1.376-19.258
			c-5.855-5.034-13.469-8.082-21.797-8.082c-9.346,0-17.791,3.835-23.864,10.01L182.702,36.513z"/>
		<rect x="201.379" y="10.883" fill="#D60000" width="3.211" height="13.409"/>
		<rect x="196.28" y="15.981" fill="#D60000" width="13.409" height="3.211"/>
	</g>
	<g>
		<path fill="#CE0E0B" d="M180.325,106.735c-0.889,4.276-3.747,8.73-8.998,14.022c-4.706,4.738-10.921,9.768-18.103,15.501
			c-1.205-1.005-2.381-1.98-3.527-2.934c-12.738-10.582-21.944-18.226-23.688-26.574c-1.025-4.901-0.178-9.81,2.267-13.131
			c1.982-2.694,4.84-4.236,8.49-4.584c0.374-0.038,0.751-0.054,1.118-0.054c2.03-0.004,4.021,0.539,5.913,1.616
			c3.939,2.234,6.537,3.594,9.377,3.587c2.83-0.005,5.42-1.36,9.348-3.594c1.908-1.084,3.831-1.613,5.878-1.618
			c0.379,0,0.768,0.019,1.152,0.054c3.652,0.346,6.512,1.887,8.494,4.581C180.494,96.926,181.347,101.833,180.325,106.735"/>
		
			<polyline fill="none" stroke="#FFFFFF" stroke-width="0.86" stroke-linecap="round" stroke-linejoin="round" stroke-miterlimit="10" points="
			131.547,111.168 141.318,111.168 143.506,99.69 148.756,119.074 152.458,106.452 155.646,116.908 158.07,108.808 160.111,113.974 
			162.443,110.148 164.984,110.148 167.253,97.777 168.528,114.485 170.313,109.638 177.455,109.638 		"/>
		<g opacity="0.08">
			<g>
				<rect x="153.166" y="88.972" fill="none" width="27.583" height="47.287"/>
				<path d="M169.552,89.026c-0.385-0.036-0.773-0.054-1.152-0.054c-2.047,0.005-3.97,0.534-5.878,1.618
					c-3.928,2.234-6.518,3.589-9.348,3.595h-0.008v42.024c0.019,0.017,0.038,0.032,0.059,0.049
					c7.182-5.733,13.396-10.763,18.103-15.501c5.251-5.292,8.109-9.746,8.998-14.022c1.021-4.902,0.169-9.81-2.279-13.128
					C176.063,90.914,173.204,89.373,169.552,89.026"/>
			</g>
		</g>
	</g>
	<g>
		<path fill="#103754" d="M70.495,122.704c0,1.748-1.419,3.166-3.167,3.166H3.165c-1.746,0-3.165-1.418-3.165-3.166V39.966
			C0,38.217,1.419,36.8,3.165,36.8h64.163c1.748,0,3.167,1.417,3.167,3.167V122.704z"/>
		<path fill="#174F78" d="M70.495,120.318c0,1.75-1.419,3.167-3.167,3.167H3.165c-1.746,0-3.165-1.417-3.165-3.167V37.582
			c0-1.748,1.419-3.166,3.165-3.166h64.163c1.748,0,3.167,1.418,3.167,3.166V120.318z"/>
		<rect x="5.699" y="40.115" fill="#FFFFFF" width="59.096" height="77.67"/>
		<rect x="5.699" y="115.252" fill="#D1ECFB" width="59.096" height="2.533"/>
		<path fill="#DE3F18" d="M48.967,44.235v-3.166c0-1.051-0.851-1.903-1.898-1.903H23.428c-1.05,0-1.898,0.852-1.898,1.903v3.166
			H48.967z"/>
		<path fill="#FD6120" d="M48.967,42.857v-3.166c0-1.048-0.851-1.899-1.898-1.899H23.428c-1.05,0-1.898,0.851-1.898,1.899v3.166
			H48.967z"/>
		<path fill="#FD6120" d="M39.68,37.582c0,2.449-1.983,4.433-4.434,4.433c-2.447,0-4.431-1.983-4.431-4.433
			c0-2.447,1.983-4.432,4.431-4.432C37.696,33.15,39.68,35.134,39.68,37.582"/>
		<path fill="#103754" d="M37.146,37.582c0,1.049-0.848,1.9-1.899,1.9c-1.048,0-1.898-0.851-1.898-1.9
			c0-1.047,0.851-1.899,1.898-1.899C36.298,35.682,37.146,36.534,37.146,37.582"/>
		<rect x="20.005" y="60.882" fill="#A6DAE9" width="36.834" height="1.939"/>
		<rect x="20.005" y="68.833" fill="#A6DAE9" width="36.834" height="1.935"/>
		<rect x="20.005" y="76.783" fill="#A6DAE9" width="36.834" height="1.935"/>
		<rect x="20.005" y="84.731" fill="#A6DAE9" width="36.834" height="1.937"/>
		<rect x="20.005" y="91.678" fill="#A6DAE9" width="36.834" height="1.934"/>
		<rect x="20.005" y="99.627" fill="#A6DAE9" width="36.834" height="1.934"/>
		<rect x="20.005" y="107.576" fill="#A6DAE9" width="36.834" height="1.935"/>
		<path fill="#FD6120" d="M13.175,64.129c-0.24,0-0.473-0.1-0.64-0.276l-1.453-1.522c-0.336-0.354-0.322-0.914,0.031-1.25
			c0.354-0.337,0.916-0.322,1.251,0.03l0.761,0.797l2.569-3.132c0.312-0.377,0.87-0.434,1.245-0.123
			c0.378,0.31,0.434,0.868,0.125,1.246l-3.204,3.907c-0.163,0.195-0.398,0.313-0.652,0.322
			C13.196,64.128,13.186,64.129,13.175,64.129"/>
		<path fill="#FD6120" d="M13.175,71.768c-0.243,0-0.473-0.1-0.64-0.276l-1.453-1.524c-0.336-0.354-0.322-0.915,0.031-1.251
			c0.354-0.336,0.916-0.323,1.251,0.031l0.761,0.799l2.569-3.133c0.312-0.378,0.867-0.431,1.245-0.125
			c0.378,0.312,0.434,0.87,0.125,1.246l-3.204,3.907c-0.163,0.198-0.398,0.315-0.652,0.325
			C13.196,71.767,13.186,71.768,13.175,71.768"/>
		<path fill="#FD6120" d="M13.175,79.405c-0.24,0-0.473-0.099-0.64-0.275l-1.453-1.523c-0.336-0.353-0.322-0.914,0.031-1.25
			c0.354-0.337,0.916-0.324,1.251,0.03l0.761,0.797l2.569-3.134c0.312-0.376,0.87-0.431,1.245-0.122
			c0.378,0.31,0.434,0.868,0.125,1.246l-3.204,3.906c-0.163,0.197-0.398,0.314-0.652,0.323
			C13.196,79.404,13.186,79.405,13.175,79.405"/>
	</g>
	<g>
		<path fill="#FEE1B9" d="M270.536,93.563c-24.631,0-44.608,21.423-44.608,48.855h89.218
			C315.146,114.986,295.168,93.563,270.536,93.563"/>
		<path fill="#FFFFFF" d="M315.146,143.851v-10.096c0-21.584-17.786-39.083-39.726-39.083h-9.664
			c-21.938,0-39.727,17.499-39.727,39.083v10.096H315.146z"/>
		<polyline fill="#0A4766" points="257.288,95.582 271.307,143.851 283.354,95.451 		"/>
		<polygon fill="#046FA3" points="272.971,108.179 276.318,104.598 270.322,99.22 266.276,104.598 269.625,108.179 265.338,132.796 
			271.297,143.851 277.393,133.467 		"/>
		<polygon fill="#FEE1B9" points="279.176,96.509 270.322,99.22 261.897,96.509 261.897,81.327 279.176,81.327 		"/>
		<path fill="#F1F2F2" d="M271.307,143.851l18.943-29.639l-5.731-2.735l9.119-2.605l3.858-7.613c0,0-6.209-4.783-14.143-5.685
			C281.22,104.028,271.307,143.851,271.307,143.851"/>
		<path fill="#F1F2F2" d="M271.307,143.851l-18.941-29.639l5.732-2.735l-9.12-2.605l-4.081-8.514c0,0,6.155-3.799,14.142-5.686
			C261.172,103.125,271.307,143.851,271.307,143.851"/>
		<path fill="#0A4766" d="M261.635,94.244l8.68,4.776l9.108-4.776l8.94,1.957l-7.515,12.953l-10.534-9.756l-8.68,9.418
			l-8.906-12.464C252.729,96.353,258.328,94.163,261.635,94.244"/>
		<path fill="#FEE1B9" d="M299.012,46.92c0-23.411-12.892-36.723-28.794-36.723s-28.793,13.312-28.793,36.723
			c0,9.809,3.001,31.526,8.121,35.951c3.52,3.126,14.999,8.477,20.614,8.477h0.002c0.019,0,0.038-0.002,0.059-0.002
			c0.02,0,0.036,0.002,0.055,0.002h0.004c5.616,0,17.098-5.351,20.613-8.477C296.214,77.246,299.012,55.922,299.012,46.92"/>
		<path fill="#FEE1B9" d="M294.631,63.155c-5.22-0.545-8.744-6.17-7.859-12.555c0.872-6.391,5.816-11.132,11.037-10.589
			c5.217,0.544,8.737,6.163,7.855,12.553C304.789,58.954,299.851,63.695,294.631,63.155"/>
		<path fill="#FEE1B9" d="M234.977,52.564c-0.881-6.39,2.64-12.009,7.853-12.553c5.225-0.543,10.168,4.198,11.044,10.588
			c0.881,6.385-2.646,12.01-7.863,12.555C240.79,63.695,235.855,58.954,234.977,52.564"/>
		<path fill="#303030" d="M289.004,25.026c0,0-2.658,7.026-21.655,14.049c-18.999,7.024-27.354,9.259-25.834,16.284
			c-5.701-11.175-5.127-47.097,26.594-47.097C292.992,8.263,292.043,20.556,289.004,25.026"/>
		<path fill="#303030" d="M301.363,42.427c0,0-11.03-16.282-18.817-17.08c3.421-9.421,7.999-8.782,7.999-8.782
			S302.904,18.475,301.363,42.427"/>
		<g opacity="0.08">
			<g>
				<rect x="270.538" y="8.306" fill="none" width="44.607" height="135.545"/>
				<path d="M297.495,101.262l0.001-0.003c0,0-3.855-2.959-9.364-4.66l0.23-0.397l-8.94-1.957l-0.246,0.128v-5.202
					c4.785-1.837,9.641-4.454,11.716-6.3c3.062-3.234,5.285-11.658,6.622-19.945c4.047-1.068,7.438-5.171,8.15-10.361
					c0.656-4.764-1.134-9.097-4.25-11.22c1.1-22.913-10.867-24.78-10.867-24.78s-0.24-0.032-0.646,0.029
					c-1.655-4.039-6.866-7.852-19.362-8.288v135.545h44.607v-10.096C315.146,120.208,308.136,108.273,297.495,101.262
					 M300.072,40.617c-0.464-0.201-0.947-0.362-1.452-0.47c-0.07-0.589-0.145-1.175-0.23-1.749
					C299.045,39.237,299.612,39.992,300.072,40.617"/>
			</g>
		</g>
	</g>
	<g>
		<path fill="#2D3C51" d="M90.367,88.755c0-1.221-0.991-2.213-2.215-2.213H71.549c-1.222,0-2.214,0.992-2.214,2.213v4.429
			c0,1.223,0.992,2.214,2.214,2.214h16.604c1.224,0,2.215-0.991,2.215-2.214V88.755z"/>
		<path fill="#465366" d="M92.004,98.718c0-1.834-1.486-3.321-3.319-3.321H71.018c-1.833,0-3.32,1.486-3.32,3.321v28.228
			c0,1.834,1.487,3.32,3.32,3.32h17.667c1.833,0,3.319-1.486,3.319-3.32V98.718z"/>
		<rect x="67.697" y="105.729" fill="#FDFEFD" width="24.307" height="14.206"/>
		<rect x="70.547" y="88.532" fill="#465366" width="0.413" height="4.876"/>
		<rect x="71.617" y="88.532" fill="#465366" width="0.416" height="4.876"/>
		<rect x="72.759" y="88.532" fill="#465366" width="0.417" height="4.876"/>
		<rect x="73.901" y="88.532" fill="#465366" width="0.415" height="4.876"/>
		<rect x="75.043" y="88.532" fill="#465366" width="0.415" height="4.876"/>
		<rect x="76.186" y="88.532" fill="#465366" width="0.414" height="4.876"/>
		<rect x="77.325" y="88.532" fill="#465366" width="0.415" height="4.876"/>
		<rect x="78.467" y="88.532" fill="#465366" width="0.415" height="4.876"/>
		<rect x="79.609" y="88.532" fill="#465366" width="0.415" height="4.876"/>
		<rect x="80.75" y="88.532" fill="#465366" width="0.417" height="4.876"/>
		<rect x="81.893" y="88.532" fill="#465366" width="0.415" height="4.876"/>
		<rect x="83.033" y="88.532" fill="#465366" width="0.414" height="4.876"/>
		<rect x="84.174" y="88.532" fill="#465366" width="0.417" height="4.876"/>
		<rect x="85.316" y="88.532" fill="#465366" width="0.415" height="4.876"/>
		<rect x="86.458" y="88.532" fill="#465366" width="0.414" height="4.876"/>
		<rect x="87.602" y="88.532" fill="#465366" width="0.413" height="4.876"/>
		<rect x="88.74" y="88.532" fill="#465366" width="0.417" height="4.876"/>
		<rect x="78.548" y="108.035" fill="#E6553E" width="2.952" height="9.594"/>
		<rect x="75.227" y="111.355" fill="#E6553E" width="9.594" height="2.952"/>
	</g>
</g>
</svg>
